<?xml version="1.0" encoding="iso-8859-1"?>
<!-- Uploaded to: SVG Repo, www.svgrepo.com, Generator: SVG Repo Mixer Tools -->
<svg height="800px" width="800px" version="1.1" id="Layer_1" xmlns="http://www.w3.org/2000/svg" xmlns:xlink="http://www.w3.org/1999/xlink" 
	 viewBox="0 0 512 512" xml:space="preserve">
<path style="fill:#DE2A4E;" d="M256,479.793c174.671,0,247.812-91.981,247.812-186.324S416.914,84.975,256,122.646
	C95.086,84.975,8.188,199.126,8.188,293.468S81.329,479.793,256,479.793z"/>
<path style="opacity:0.15;enable-background:new    ;" d="M323.511,182.082c-1.57-8.506-7.095-30.61-23.726-44.48
	c-1.301-1.085-2.641-2.089-4.008-3.024c-1.191-0.814-0.937-2.628,0.417-3.129c0.096-0.036,0.191-0.071,0.287-0.107
	c9.551-3.613,17.365-9.765,23.407-16.048c-19.788-0.269-41.094,2.015-63.889,7.351c-28.613-6.698-54.871-8.576-78.73-6.638
	c5.942,6.03,13.519,11.858,22.708,15.335c0.096,0.036,0.191,0.072,0.287,0.107c1.354,0.501,1.609,2.314,0.417,3.129
	c-1.367,0.934-2.706,1.94-4.008,3.024c-16.633,13.87-22.158,35.973-23.727,44.48c-0.344,1.865,1.092,3.587,2.988,3.584
	c8.65-0.015,31.387-1.48,48.019-15.35c0.011-0.009,0.022-0.019,0.034-0.027c1.18-0.986,2.945-0.159,2.943,1.378v0.044
	c0,21.657,13.437,40.056,18.966,46.709c1.212,1.458,3.454,1.458,4.666,0c5.528-6.654,18.966-25.053,18.966-46.709v-0.044
	c-0.002-1.538,1.763-2.363,2.943-1.378c0.011,0.009,0.022,0.019,0.033,0.027c16.633,13.87,39.369,15.335,48.019,15.35
	C322.419,185.669,323.856,183.948,323.511,182.082z"/>
<path style="opacity:0.15;enable-background:new    ;" d="M281.398,454.395c-174.671,0-247.812-91.981-247.812-186.324
	c0-37.798,13.962-78.768,41.032-111.887C30.913,191.836,8.188,245.236,8.188,293.468c0,94.343,73.142,186.324,247.812,186.324
	c104.555,0,172.719-32.963,210.606-79.656C426.412,432.942,365.746,454.395,281.398,454.395z"/>
<path style="fill:#00A155;" d="M307.557,129.829c-1.3-1.085-2.64-2.089-4.008-3.024c-1.192-0.814-0.937-2.628,0.417-3.129
	c0.096-0.036,0.191-0.071,0.287-0.107c20.255-7.664,32.709-26.742,36.976-34.266c0.936-1.65,0.142-3.747-1.651-4.363
	c-8.179-2.817-30.143-8.872-50.398-1.208c-14.782,5.593-25.408,17.264-31.729,26.088c-0.715,0.998-2.183,0.998-2.897,0
	c-6.322-8.824-16.948-20.495-31.729-26.088c-20.255-7.664-42.219-1.607-50.398,1.208c-1.794,0.617-2.586,2.714-1.651,4.363
	c4.266,7.525,16.72,26.603,36.976,34.266c0.096,0.036,0.191,0.072,0.287,0.107c1.354,0.501,1.609,2.314,0.417,3.129
	c-1.367,0.934-2.706,1.94-4.008,3.024c-16.633,13.87-22.158,35.973-23.727,44.48c-0.344,1.865,1.092,3.587,2.988,3.584
	c8.65-0.015,31.387-1.48,48.019-15.35c0.011-0.009,0.022-0.019,0.033-0.027c1.18-0.986,2.945-0.159,2.943,1.378
	c0,0.014,0,0.028,0,0.044c0,21.657,13.437,40.056,18.964,46.709c1.212,1.458,3.454,1.458,4.666,0
	c5.528-6.654,18.966-25.053,18.966-46.709c0-0.014,0-0.028,0-0.044c-0.001-1.538,1.763-2.365,2.943-1.378
	c0.011,0.009,0.022,0.019,0.033,0.027c16.633,13.87,39.369,15.334,48.019,15.35c1.896,0.003,3.332-1.718,2.988-3.584
	C329.715,165.802,324.19,143.699,307.557,129.829z"/>
<g>
	<path style="opacity:0.15;fill:#FFFFFF;enable-background:new    ;" d="M444.017,161.856c-4.466-0.915-9.09-1.396-13.827-1.396
		c-37.85,0-68.535,30.684-68.535,68.535s30.685,68.535,68.535,68.535c32.106,0,59.046-22.081,66.487-51.882
		C487.595,214.982,469.912,185.198,444.017,161.856z"/>
	<circle style="opacity:0.1;fill:#FFFFFF;enable-background:new    ;" cx="368.144" cy="359.847" r="33.615"/>
</g>
<path d="M462.635,168.859c-22.987-25.28-62.66-55.089-124.506-60.794c4.851-5.83,8.272-11.279,10.227-14.727
	c1.65-2.91,1.916-6.374,0.731-9.505c-1.184-3.13-3.678-5.549-6.841-6.637c-9.276-3.195-33.3-9.699-55.961-1.124
	c-4.422,1.674-8.494,3.816-12.232,6.236c10.305-21.01,26.52-35.342,37.858-43.435c3.68-2.627,4.534-7.74,1.907-11.42
	c-2.627-3.681-7.741-4.534-11.421-1.907c-16.027,11.441-40.582,33.842-50.352,68.473c-6.731-6.979-15.498-13.85-26.322-17.946
	c-22.659-8.572-46.684-2.07-55.961,1.124c-3.164,1.089-5.658,3.51-6.841,6.641c-1.184,3.131-0.917,6.596,0.734,9.504
	c1.954,3.446,5.372,8.895,10.224,14.724c-61.849,5.704-101.522,35.514-124.51,60.794C17.993,203.358,0,248.777,0,293.468
	c0,52.643,21.745,100.489,61.229,134.726C106.333,467.306,173.685,487.98,256,487.98s149.667-20.674,194.771-59.785
	C490.255,393.958,512,346.111,512,293.468C512,248.778,494.007,203.36,462.635,168.859z M219.927,91.387
	c12.872,4.87,22.315,15.303,27.971,23.197c0.107,0.148,0.229,0.282,0.344,0.424c-0.275,3.246-0.426,6.572-0.426,9.989
	c0,4.522,3.665,8.188,8.188,8.188c4.523,0,8.188-3.666,8.188-8.188c0-3.943,0.239-7.749,0.665-11.433
	c5.724-7.753,14.897-17.513,27.224-22.176c13.954-5.279,29.095-3.045,38.588-0.583c-5.486,8.129-15.358,19.828-29.306,25.105
	l-0.237,0.088c-3.52,1.302-5.991,4.423-6.45,8.146c-0.456,3.704,1.172,7.313,4.253,9.42c1.192,0.814,2.331,1.672,3.385,2.552
	c11.458,9.555,16.957,23.84,19.481,33.316c-9.774-0.779-24.814-3.623-36.272-13.176c-0.01-0.008-0.02-0.016-0.028-0.024
	c-2.966-2.479-7.143-3.025-10.637-1.389c-3.494,1.636-5.749,5.193-5.743,9.093c0,14.919-7.45,28.292-13.111,36.298
	c-5.661-8.007-13.111-21.386-13.111-36.33c0.005-3.868-2.249-7.424-5.743-9.061c-1.339-0.628-2.779-0.934-4.212-0.934
	c-2.306,0-4.596,0.794-6.426,2.323c-0.01,0.008-0.019,0.015-0.027,0.023c-11.457,9.554-26.498,12.397-36.273,13.178
	c2.524-9.475,8.023-23.76,19.481-33.316c1.055-0.88,2.193-1.739,3.384-2.553c3.081-2.107,4.709-5.716,4.253-9.42
	c-0.458-3.723-2.93-6.844-6.435-8.141l-0.247-0.093c-13.953-5.279-23.824-16.979-29.31-25.106
	C190.829,88.341,205.973,86.107,219.927,91.387z M440.044,415.823C397.959,452.315,334.318,471.605,256,471.605
	s-141.959-19.289-184.044-55.782c-35.842-31.079-55.581-74.532-55.581-122.354c0-40.668,16.441-82.072,45.106-113.595
	c22.771-25.041,63.565-54.937,128.998-56.341c1.638,1.145,3.327,2.253,5.105,3.279c-15.8,15.453-21.255,37.017-22.913,46.008
	c-0.608,3.29,0.273,6.653,2.417,9.222c2.139,2.565,5.278,4.035,8.615,4.035h0.022c8.227-0.015,27.014-1.225,43.837-10.762
	c3.448,19.03,14.552,34.232,19.809,40.557c2.136,2.574,5.283,4.051,8.629,4.052h0.003c3.347-0.001,6.492-1.476,8.63-4.049
	c5.255-6.325,16.351-21.515,19.806-40.563c16.824,9.541,35.615,10.75,43.841,10.764h0.023c3.338,0,6.478-1.469,8.617-4.035
	c2.144-2.57,3.025-5.932,2.418-9.221c-1.66-8.993-7.116-30.558-22.914-46.011c1.777-1.026,3.468-2.134,5.105-3.28
	c65.429,1.406,106.222,31.303,128.993,56.342c28.665,31.523,45.105,72.926,45.105,113.593
	C495.625,341.291,475.885,384.744,440.044,415.823z"/>
</svg>